<?xml version="1.0" encoding="UTF-8" standalone="no"?>
<svg
   xmlns:dc="http://purl.org/dc/elements/1.1/"
   xmlns:cc="http://creativecommons.org/ns#"
   xmlns:rdf="http://www.w3.org/1999/02/22-rdf-syntax-ns#"
   xmlns:svg="http://www.w3.org/2000/svg"
   xmlns="http://www.w3.org/2000/svg"
   viewBox="0 0 36 36"
   version="1.1"
   id="svg14">
  <metadata
     id="metadata20">
    <rdf:RDF>
      <cc:Work
         rdf:about="">
        <dc:format>image/svg+xml</dc:format>
        <dc:type
           rdf:resource="http://purl.org/dc/dcmitype/StillImage" />
        <dc:title></dc:title>
      </cc:Work>
    </rdf:RDF>
  </metadata>
  <defs
     id="defs18" />
  <path
     fill="#7bade2"
     d="m 0,19.9285 h 36 v 3.857 H 0 Z"
     id="path4" />
  <path
     fill="#efefef"
     d="m 0,16.0715 h 36 v 3.857 H 0 Z"
     id="path6" />
  <path
     fill="#98e8c1"
     d="m 0,12.2145 h 36 v 3.857 H 0 Z"
     id="path8" />
  <path
     fill="#26ceaa"
     d="m 0,8.3575 h 36 v 3.857 H 0 Z"
     id="path10" />
  <path
     fill="#078d70"
     d="M 32,4.5005 H 3.5630485 C 1.595355,4.5005 0,6.0958549 0,8.0635485 V 8.3575 H 36 V 8.0635485 C 36,6.0958544 33.967694,4.5005 32,4.5005 Z"
     id="path12" />
  <path
     fill="#5049cc"
     d="M -2.4e-7,23.7855 H 36 v 3.857 H -2.4e-7 Z"
     id="path4-2" />
  <path
     fill="#3d1a78"
     d="M 32,31.4995 H 3.5630489 C 1.5953555,31.4995 4e-7,29.904145 4e-7,27.936451 V 27.6425 H 36 v 0.293951 c 0,1.967694 -2.032306,3.563049 -4,3.563049 z"
     id="path12-8" />
</svg>
